<svg width="76" height="75" viewBox="0 0 76 75" fill="none" xmlns="http://www.w3.org/2000/svg">
<path d="M50.159 19.791C51.1908 18.5765 52.5563 17.2709 53.1632 16.9065C56.7137 14.7204 58.1096 16.7851 55.3178 19.9428C53.1936 22.3414 52.5261 23.2523 51.9192 24.0417C51.9192 24.0417 50.0617 26.3593 49.5654 26.8206C49.069 27.2819 48.3933 28.0018 47.0941 29.507C46.0017 30.7823 39.137 38.9552 39.137 38.9552L36.2017 42.4333C36.2017 42.4333 30.3588 49.1091 26.7775 53.7176C25.9003 54.8466 24.4563 56.5603 24.4563 56.5603L23.4548 57.5926C20.0258 61.145 17.0216 59.9305 19.692 56.1048L21.0879 54.1313C21.0879 54.1313 23.1179 51.2644 23.7649 50.5487C24.412 49.833 25.6223 48.3985 28.553 44.8402L33.1958 39.1928L35.8966 35.944C36.109 35.9743 45.6073 25.0134 45.6983 24.8312C45.6983 24.8312 46.892 23.3124 47.8659 22.2605C48.695 21.3651 48.7935 21.3698 50.159 19.791Z" fill="#EDD0BE"/>
<path fill-rule="evenodd" clip-rule="evenodd" d="M22.4182 35.2627C13.8056 33.6775 13.2772 19.5172 21.7314 16.5583C23.7392 15.8711 25.747 15.8184 26.6454 16.3995C27.4906 16.9279 27.0153 18.0373 25.9585 18.0373C21.4145 18.0373 19.6179 27.8657 23.6861 30.4018C29.4984 33.9948 35.0992 26.2274 30.8194 20.6266C28.4417 17.5094 31.7708 15.66 34.6239 18.5131C42.7082 26.5974 34.6766 37.5878 22.4182 35.2627ZM46.0974 40.9948C41.5534 42.1046 37.9604 46.7544 37.9604 51.5626C37.9078 61.8131 56.2426 62.9226 60.4166 52.8835C61.9491 49.2375 59.3072 43.7425 56.4537 44.4824C55.2385 44.7993 55.1854 44.9577 55.978 48.0754C57.352 53.5177 51.2756 59.0127 46.89 56.4238C39.5456 52.091 44.6711 40.0964 52.4908 43.3725C54.4459 44.2178 56.9821 44.0067 56.9821 43.0556C56.9821 41.259 50.4303 39.9911 46.0974 40.9948Z" fill="#323231"/>
</svg>
