<svg width="78" height="80" viewBox="0 0 78 80" fill="none" xmlns="http://www.w3.org/2000/svg">
<path d="M2 12.7634L14.4813 35.2233L43.7861 27.0229L46.5024 4.17331C46.5024 4.17331 39.7235 13.9649 33.8365 12.8369C28.199 11.7568 25.1353 1 25.1353 1C25.1353 1 23.7158 14.0663 17.4049 16.6815C11.6707 19.0578 2 12.7634 2 12.7634Z" stroke="#D7BBF8" stroke-width="3"/>
<path d="M45.7695 40.3012C46.5831 40.3012 47.1363 39.9106 47.6896 38.8693C49.6747 35.1593 51.3019 34.8989 52.1805 38.0882C53.0592 41.2124 56.3788 41.5378 56.3788 38.5113C56.3788 35.1593 51.1066 32.4256 47.3316 33.7924C44.5328 34.8338 43.2311 40.3012 45.7695 40.3012Z" fill="#323231"/>
<path d="M28.3259 41.31C28.3259 38.4136 30.311 37.242 31.2548 39.5526C32.3287 42.1236 34.2162 42.8721 34.9322 40.9845C36.2664 37.5349 29.1069 34.1504 25.8851 36.6888C24.6159 37.6976 23.4769 40.6591 23.9325 41.8307C24.4857 43.2951 28.3259 42.807 28.3259 41.31Z" fill="#323231"/>
<path d="M30.5716 57.6467C39.2933 61.5194 48.1452 60.3478 53.9705 54.555C60.0887 48.4693 57.7456 42.1233 49.8375 43.3275C49.089 43.4251 46.8761 44.2387 44.956 45.1174C41.0508 46.8747 38.6425 47.0049 33.2403 45.7031C24.3559 43.6203 22.0777 53.9041 30.5716 57.6467ZM53.0919 45.8333C54.5889 47.7208 53.9055 50.9427 51.5949 53.1231C50.0653 54.555 50.2281 54.6852 49.1867 51.1054C48.7311 49.5107 48.2103 47.8835 48.0151 47.4605C47.4293 45.9635 52.0505 44.499 53.0919 45.8333ZM43.3288 48.0788C45.2489 47.5581 45.2489 47.5256 46.1276 51.7237C47.1039 56.3449 47.1039 56.41 45.4441 56.9958C42.2223 58.1348 42.5802 58.0697 41.7992 48.4693L43.3288 48.0788ZM35.5509 48.4368H39.1631C39.1631 55.2384 39.2609 55.1408 39.749 57.6141L37.9917 57.2886C35.2906 56.8005 35.5509 56.6052 35.5509 48.4368ZM31.8408 47.3628C32.9798 47.6557 33.468 55.694 32.3615 55.694C31.3201 55.694 28.9119 52.7326 28.5864 51.0077C28.0657 48.1764 29.3675 46.712 31.8408 47.3628Z" fill="#323231"/>
<path d="M51.7573 21.7836C46.648 19.2126 46.5179 20.189 51.3343 24.8752C66.402 39.4873 62.334 61.4868 44.2723 63.2767C30.246 64.6761 20.2551 56.0195 20.5154 43.0021C20.7107 32.6532 27.5123 21.8161 38.7073 20.5144C40.9528 20.254 41.0179 20.189 40.009 19.6357C38.4469 18.757 33.8909 18.9198 31.1247 19.8961C27.5123 21.1978 23.8348 23.8664 20.971 27.316C13.7789 35.9075 14.56 49.4132 20.2226 57.4189C27.2845 67.4098 50.9437 69.1346 59.2424 60.2502C69.6563 49.1203 65.686 28.813 51.7573 21.7836Z" fill="#323231"/>
</svg>
