<svg width="76" height="76" viewBox="0 0 76 76" fill="none" xmlns="http://www.w3.org/2000/svg">
<path d="M14.0155 50.1803C17.2184 48.8991 16.2083 47.6427 12.8823 48.776C11.0592 49.3919 10.9113 49.5397 11.3301 50.2049C11.7243 50.8455 12.3402 50.8455 14.0155 50.1803Z" fill="black"/>
<path d="M13.1289 51.3382C11.7738 51.831 11.5274 52.1266 12.1434 52.5947C12.7839 53.0875 14.0897 52.915 15.2969 52.2005C16.9968 51.1658 15.3462 50.5252 13.1289 51.3382Z" fill="black"/>
<path d="M61.8363 37.7382C60.5551 36.802 60.3087 36.3585 60.8261 36.0383C61.1464 35.8412 63.2406 31.505 64.6942 28.0558C66.542 23.6704 66.6898 23.7936 59.6682 23.6704L54.6668 23.5718L55.135 22.6603C59.1755 14.7271 57.6973 11.1055 51.809 14.53C50.3308 15.3923 48.5322 16.4271 47.8178 16.7966C46.2903 17.6343 46.3395 17.8561 46.9555 13.6924C47.5221 9.82435 46.3889 8.64173 43.802 10.391C43.3338 10.7113 41.6831 11.9924 40.1556 13.2242C36.9035 15.8604 37.1745 15.7619 36.4847 14.4315C35.0804 11.7953 32.9861 10.8591 32.1238 12.5098C31.0152 14.6286 29.5617 22.34 30.2269 22.5618C31.0152 22.8328 32.8138 19.9748 33.8239 16.8459C33.9964 16.3531 35.0064 17.4372 35.3267 18.4473C35.7209 19.7038 36.3369 19.4328 40.2049 16.3531C41.6585 15.1706 42.915 14.2344 42.9397 14.2344C42.9889 14.2344 42.8657 15.0474 42.6686 16.0083C41.3875 22.5617 42.8656 21.798 48.6307 18.9154C53.8292 16.3039 53.3365 16.23 52.2771 19.5314L50.9467 23.7197C50.0844 26.4298 50.9467 27.5877 53.1394 26.6761C54.1249 26.2573 61.3189 26.4051 61.3189 26.8239C61.3189 26.9225 60.6291 28.2775 59.8161 29.8051C57.6727 33.7716 57.3277 34.9542 56.6625 35.8412C56.0219 36.6542 56.5146 38.3295 57.5248 38.5266C58.5842 38.7237 59.9886 40.2019 62.6494 42.7396C54.7655 45.8438 54.5929 45.4004 58.732 51.0669C59.8899 52.6683 60.8262 53.9987 60.7769 54.048C60.7276 54.0726 59.077 53.9988 57.0813 53.8509C52.0307 53.4814 51.5872 53.7523 52.819 56.2653C53.5828 57.8175 53.5582 57.8175 51.7104 56.7335C47.867 54.4422 44.9106 55.6987 48.6062 58.0639C57.5248 63.8043 58.6581 63.9522 57.5248 59.3204C56.6871 55.9697 56.7118 55.9204 57.6973 56.0436C59.0523 56.2161 62.8464 56.3146 63.9058 56.6842C67.1579 57.8422 66.542 55.4277 62.1566 49.9829C60.9001 48.4061 59.8653 47.0264 59.8653 46.9032C59.8653 46.6076 65.2116 44.1932 66.3203 43.9961C67.1826 43.8483 67.2564 43.2077 66.6405 42.2468C65.9014 41.0889 64.2507 39.4874 61.8363 37.7382Z" fill="#FEDA79"/>
<path d="M32.5672 55.329C37.8395 55.5753 42.3481 57.4477 47.5465 54.3188C53.9768 50.4754 48.9016 32.5642 44.8118 26.8237C42.1017 23.0296 38.3323 20.9848 33.528 23.5224C30.6208 25.0499 30.0296 25.5426 26.4079 29.5585C24.6833 31.4556 22.7123 33.4019 22.0224 33.8453C21.3326 34.3134 20.495 34.8801 20.1501 35.1018C11.8967 40.793 10.0488 42.2466 9.38362 43.6263C7.56047 47.3958 8.32418 52.2493 11.1821 54.9101C11.9458 55.6246 18.1544 59.7883 18.45 59.7883C18.5486 59.7883 19.0414 60.3549 19.5342 61.0448C23.2051 66.1693 27.3934 67.4258 31.3107 64.6172C34.1193 62.6216 33.9961 61.0201 30.8179 57.9651L29.8325 57.0289L30.8426 55.2058L32.5672 55.329ZM10.517 47.1741C11.4285 44.0698 15.9864 39.6105 15.5922 42.1974C15.0995 45.4248 17.9327 51.2885 21.0369 53.5304L22.3181 54.4667L21.4065 55.0826C16.7747 58.3347 8.94018 52.6189 10.517 47.1741ZM29.9803 61.636C29.2658 62.1781 28.6253 61.1433 28.6253 61.1433C27.5659 60.0839 26.5803 60.5028 27.3194 61.5868C27.8368 62.3259 28.1079 62.3013 27.3687 63.0897C26.3093 64.1983 25.8412 64.0012 23.3036 61.5868C19.3124 57.768 19.0661 57.2014 21.0124 56.413C21.9733 56.0188 21.9979 55.8217 22.5892 56.8811C23.6486 58.7781 24.9297 58.4579 27.4919 58.1622C27.8368 58.113 28.1572 58.2608 28.3789 58.5071L29.0687 59.3448C29.6107 59.8622 30.5223 61.2172 29.9803 61.636ZM27.4673 54.8855C28.3542 55.5507 26.6049 56.8811 25.8412 56.8811C25.3238 56.8811 24.092 55.9942 24.092 55.6246C24.092 55.1319 26.8513 54.4174 27.4673 54.8855ZM21.6283 51.1407C16.0603 46.1147 15.9618 40.3989 21.382 37.0975C24.6833 35.0772 27.5659 32.6874 29.6354 30.2483C30.3992 29.3614 31.3107 27.9571 31.8281 27.5383C32.6411 26.8484 32.7643 27.4643 32.3455 28.1542C27.221 36.3091 30.0296 46.0407 33.7005 50.0566C38.5048 55.3043 46.4625 53.358 46.4625 47.4697C46.4625 46.1393 45.8959 45.8683 45.477 47.0509C42.767 54.9594 37.8642 49.8349 37.8395 49.8349C38.4555 47.7161 38.7511 45.9668 41.7321 44.5379C47.0291 42.0249 42.4713 33.9932 36.8047 35.841C34.4888 36.6047 31.902 35.3975 31.6802 35.1511C31.6802 35.1265 32.1976 28.7947 36.4352 26.2325C37.6424 25.4934 36.7308 24.5079 35.3265 25.1977C34.3903 25.6658 33.9961 25.0992 34.3657 24.6803C35.3758 23.547 37.0757 23.2267 38.1844 23.6948C47.9161 27.7846 54.1739 54.4666 42.3481 54.2449C40.7713 54.2203 37.4454 53.7275 32.5672 53.1609C28.0093 52.6681 25.0283 54.2203 21.6283 51.1407ZM32.2223 38.8467C32.2223 38.5264 32.5179 38.3786 33.6512 38.2554C34.4396 38.1569 35.228 37.9844 35.4251 37.8859C36.3613 37.3438 36.583 37.6148 36.7309 39.4134C36.9033 41.4336 37.6178 43.1089 38.5048 43.577C38.8497 43.7495 39.1207 43.9959 39.1207 44.0944C39.1207 44.2915 35.4497 47.0016 35.1541 47.0016C34.686 47.0262 32.2223 40.1525 32.2223 38.8467ZM40.1801 37.4916C40.5496 38.0583 41.338 40.9408 41.338 41.7292C41.338 42.4191 40.796 41.7785 40.0815 40.251C39.0468 38.1076 39.1453 35.9149 40.1801 37.4916Z" fill="black"/>
</svg>
