<svg width="76" height="86" viewBox="0 0 76 86" fill="none" xmlns="http://www.w3.org/2000/svg">
<path d="M19.1575 63.9184C12.7305 57.7737 10.7384 40.3739 25.9062 42.1488C28.2985 39.4545 30.5574 21.124 35.1483 16.806C38.5515 13.6054 45.858 13.8848 45.2648 23.2532C44.5374 34.7464 34.1368 42.9988 37.0085 44.7236C39.5211 46.2333 50.1621 30.8439 52.5127 25.8792C55.3512 19.885 65.1791 22.9996 62.0763 33.3731C59.8488 40.8213 50.6687 46.2708 47.9735 48.3227C47.6632 48.5588 47.8483 49.0566 48.2374 49.032C54.5366 48.6393 57.8813 58.3956 52.3009 60.4285C52.3009 60.4285 51.2893 71.9502 40.8061 72.4133C40.8061 72.4133 45.3428 78.8219 35.5487 79.3761C25.7547 79.9303 15.161 72.3464 14.3287 66.9886C13.4964 61.6308 19.1575 63.9184 19.1575 63.9184Z" fill="white"/>
<path fill-rule="evenodd" clip-rule="evenodd" d="M19.1575 63.9184C12.7305 57.7737 10.7384 40.3739 25.9062 42.1488C28.2985 39.4545 30.5574 21.124 35.1483 16.806C38.5515 13.6054 45.858 13.8848 45.2648 23.2532C44.5374 34.7464 34.1368 42.9988 37.0085 44.7236C39.5211 46.2333 50.1621 30.8439 52.5127 25.8792C55.3512 19.885 65.1791 22.9996 62.0763 33.3731C59.8488 40.8213 50.6687 46.2708 47.9735 48.3227C47.6632 48.5588 47.8483 49.0566 48.2374 49.032C54.5366 48.6393 57.8813 58.3956 52.3009 60.4285C52.3009 60.4285 51.2893 71.9502 40.8061 72.4133C40.8061 72.4133 45.3428 78.8219 35.5487 79.3761C25.7547 79.9303 15.161 72.3464 14.3287 66.9886C13.4964 61.6308 19.1575 63.9184 19.1575 63.9184Z" stroke="#323231" stroke-width="3" stroke-miterlimit="2"/>
<path d="M26.6842 69.1177C26.6842 69.1177 33.5803 73.2453 40.807 72.4131" stroke="#323231" stroke-width="3" stroke-miterlimit="2" stroke-linecap="round"/>
<path d="M25.9063 42.15C32.7731 43.201 38.9124 53.1869 36.5574 57.8918C34.2026 62.5961 27.8021 62.5491 23.2133 50.8653" stroke="#323231" stroke-width="3" stroke-miterlimit="2" stroke-linecap="round"/>
<path d="M49.8262 52.7697C45.3639 51.6866 35.9527 53.3392 39.0877 60.1679C41.6421 65.7315 52.3011 60.429 52.3011 60.429" stroke="#323231" stroke-width="3" stroke-miterlimit="2" stroke-linecap="round"/>
<path d="M57.842 16.8052C66.5677 15.6932 72.0676 24.6932 69.1003 30.8669" stroke="#323231" stroke-width="3" stroke-linecap="round"/>
<path d="M29.6431 14.4467C31.7125 7.44418 43.2122 5.94421 47.45 11.7276" stroke="#323231" stroke-width="3" stroke-linecap="round"/>
</svg>
