<svg width="17" height="16" viewBox="0 0 17 16" fill="none" xmlns="http://www.w3.org/2000/svg">
<path d="M16.1156 12.178C15.9763 13.2366 15.4564 14.2083 14.6531 14.9116C13.8497 15.6149 12.8177 16.0018 11.75 15.9998C5.54688 15.9998 0.500007 10.953 0.500007 4.74984C0.498093 3.6821 0.884919 2.65017 1.58824 1.84679C2.29155 1.04341 3.26326 0.523519 4.32188 0.384217C4.58958 0.35153 4.86067 0.406297 5.09468 0.540341C5.3287 0.674385 5.51309 0.880517 5.62032 1.12797L7.27032 4.81156V4.82094C7.35242 5.01035 7.38633 5.21715 7.36901 5.42287C7.3517 5.62859 7.2837 5.82681 7.1711 5.99984C7.15704 6.02094 7.14219 6.04047 7.12657 6.06L5.50001 7.98812C6.08516 9.17719 7.32891 10.41 8.5336 10.9967L10.4352 9.37875C10.4538 9.36305 10.4734 9.34844 10.4938 9.335C10.6666 9.21969 10.8655 9.1493 11.0725 9.1302C11.2794 9.11111 11.4878 9.1439 11.6789 9.22562L11.6891 9.23031L15.3695 10.8795C15.6174 10.9864 15.8241 11.1706 15.9585 11.4047C16.093 11.6387 16.1481 11.91 16.1156 12.178Z" fill="#323231" fill-opacity="0.5"/>
</svg>
