<svg width="18" height="20" viewBox="0 0 18 20" fill="none" xmlns="http://www.w3.org/2000/svg">
<path d="M17.0306 5.71938L11.7806 0.469375C11.7109 0.399749 11.6282 0.344539 11.5371 0.306898C11.4461 0.269257 11.3485 0.249923 11.25 0.25H2.25C1.85218 0.25 1.47064 0.408035 1.18934 0.68934C0.908035 0.970645 0.75 1.35218 0.75 1.75V18.25C0.75 18.6478 0.908035 19.0294 1.18934 19.3107C1.47064 19.592 1.85218 19.75 2.25 19.75H15.75C16.1478 19.75 16.5294 19.592 16.8107 19.3107C17.092 19.0294 17.25 18.6478 17.25 18.25V6.25C17.2501 6.15148 17.2307 6.05391 17.1931 5.96286C17.1555 5.87182 17.1003 5.78908 17.0306 5.71938ZM12 2.81031L14.6897 5.5H12V2.81031ZM15.75 18.25H2.25V1.75H10.5V6.25C10.5 6.44891 10.579 6.63968 10.7197 6.78033C10.8603 6.92098 11.0511 7 11.25 7H15.75V18.25ZM11.7806 12.4694C11.8504 12.539 11.9057 12.6217 11.9434 12.7128C11.9812 12.8038 12.0006 12.9014 12.0006 13C12.0006 13.0986 11.9812 13.1962 11.9434 13.2872C11.9057 13.3783 11.8504 13.461 11.7806 13.5306L9.53063 15.7806C9.46097 15.8504 9.37825 15.9057 9.2872 15.9434C9.19616 15.9812 9.09856 16.0006 9 16.0006C8.90144 16.0006 8.80384 15.9812 8.71279 15.9434C8.62175 15.9057 8.53903 15.8504 8.46937 15.7806L6.21937 13.5306C6.07864 13.3899 5.99958 13.199 5.99958 13C5.99958 12.801 6.07864 12.6101 6.21937 12.4694C6.36011 12.3286 6.55098 12.2496 6.75 12.2496C6.94902 12.2496 7.13989 12.3286 7.28063 12.4694L8.25 13.4397V9.25C8.25 9.05109 8.32902 8.86032 8.46967 8.71967C8.61032 8.57902 8.80109 8.5 9 8.5C9.19891 8.5 9.38968 8.57902 9.53033 8.71967C9.67098 8.86032 9.75 9.05109 9.75 9.25V13.4397L10.7194 12.4694C10.789 12.3996 10.8717 12.3443 10.9628 12.3066C11.0538 12.2688 11.1514 12.2494 11.25 12.2494C11.3486 12.2494 11.4462 12.2688 11.5372 12.3066C11.6283 12.3443 11.711 12.3996 11.7806 12.4694Z" fill="#323231"/>
</svg>
