<svg width="22" height="22" viewBox="0 0 22 22" fill="none" xmlns="http://www.w3.org/2000/svg">
<path fill-rule="evenodd" clip-rule="evenodd" d="M16.4999 11.6471C13.2888 11.6471 10.6764 14.2595 10.6764 17.4706C10.6764 19.2982 11.5229 20.9315 12.8441 22H0.97052V0H16.4999V11.6471ZM13.9117 3.88235H6.14699V5.17647H13.9117V3.88235ZM13.9117 6.47059H6.14699V7.76471H13.9117V6.47059ZM13.9117 9.05882H6.14699V10.3529H13.9117V9.05882ZM10.6764 11.6471H6.14699V12.9412H10.6764V11.6471ZM3.55876 15.5294H4.85287V14.2353H3.55876V15.5294ZM3.55876 12.9412H4.85287V11.6471H3.55876V12.9412ZM3.55876 10.3529H4.85287V9.05882H3.55876V10.3529ZM3.55876 7.76471H4.85287V6.47059H3.55876V7.76471ZM3.55876 5.17647H4.85287V3.88235H3.55876V5.17647ZM6.14699 15.5294H8.73523V14.2353H6.14699V15.5294ZM11.9705 17.4707C11.9705 14.9692 13.9984 12.9413 16.4999 12.9413C19.0015 12.9413 21.0293 14.9692 21.0293 17.4707C20.8082 23.4708 12.1925 23.4724 11.9705 17.4707ZM14.263 17.7665L16.0146 19.5181L18.7369 16.7959L17.8219 15.8808L16.0147 17.688L15.1781 16.8514L14.263 17.7665Z" fill="white"/>
</svg>
