<svg width="24" height="24" viewBox="0 0 24 24" fill="none" xmlns="http://www.w3.org/2000/svg">
<path fill-rule="evenodd" clip-rule="evenodd" d="M16.9563 12.3369H11V1H22.8276V12.3369H20.5465L16.9563 14.513V12.3369ZM16.2692 4.32724H13.8468V5.61631H14.7724C14.9019 6.46425 15.2826 7.27516 15.8663 7.93804C15.3071 8.21094 14.6321 8.37383 13.8468 8.37383V9.66289C15.1954 9.66289 16.1978 9.28236 16.9137 8.82887C17.6297 9.28236 18.6321 9.66289 19.9807 9.66289V8.37383C19.1954 8.37383 18.5204 8.21094 17.9612 7.93804C18.5449 7.27516 18.9257 6.46425 19.0551 5.61631H19.9807V4.32724H17.5583V3.09675H16.2692V4.32724ZM13.2841 13.6257H9.88337V9.48686H1V20.8237H3.5453L7.13547 22.9998V20.8237H13.2841V13.6257ZM8.70018 18.2665L8.17609 16.8778H6.11071L5.58133 18.2677L4.3767 17.8089L6.60326 11.9628L7.69858 11.9616L9.90618 17.8115L8.70018 18.2665ZM17.0862 7.17394C17.516 6.71933 17.7957 6.17569 17.9176 5.6161H16.2549C16.3768 6.17573 16.6565 6.71937 17.0862 7.17394ZM6.60182 15.5889H7.68974L7.14825 14.154L6.60182 15.5889Z" fill="white"/>
</svg>
