<svg width="24" height="22" viewBox="0 0 24 22" fill="none" xmlns="http://www.w3.org/2000/svg">
<path d="M5.67188 0.453125C2.5703 0.453125 0 2.97655 0 6.07812C0 9.1797 2.5703 11.7031 5.67188 11.7031C6.59475 11.7031 7.51481 11.4628 8.3498 11.0068L10.9755 11.3818L10.6006 8.756C11.0565 7.92106 11.2969 7.001 11.2969 6.07812C11.2969 2.97655 8.77345 0.453125 5.67188 0.453125ZM7.14952 8.4965L6.65438 7.48438H4.68937L4.19423 8.4965L2.93081 7.8785L5.1878 3.26562H6.16378L8.41298 7.8785L7.14952 8.4965ZM18.3281 0.453125C15.2265 0.453125 12.7031 2.97655 12.7031 6.07812C12.7031 7.001 12.9435 7.92106 13.3994 8.75605L13.0245 11.3818L15.6503 11.0069C16.4852 11.4628 17.4053 11.7031 18.3281 11.7031C21.4297 11.7031 24 9.1797 24 6.07812C24 2.97655 21.4297 0.453125 18.3281 0.453125ZM17.625 6.78125H16.2188V5.375H17.625V6.78125ZM20.4375 6.78125H19.0312V5.375H20.4375V6.78125ZM21.4077 18.7344C18.9351 18.7344 18.1469 18.3107 17.4506 17.9365C16.893 17.6378 16.317 17.3281 15.1977 17.3281C14.0352 17.3281 12.8947 17.7422 12 18.4769C11.1053 17.7422 9.96478 17.3281 8.80228 17.3281C7.68305 17.3281 7.10695 17.6378 6.54938 17.9365C5.85314 18.3107 5.06489 18.7344 2.59228 18.7344H2.15625L0 21.5469H2.84494C4.79981 21.5469 5.93967 21.0559 6.85495 20.6611C7.53061 20.3706 8.06414 20.1406 8.80228 20.1406C10.0513 20.1406 10.8169 20.3734 11.3635 20.92L12 21.5469L12.6365 20.92C13.1831 20.3734 13.9487 20.1406 15.1977 20.1406C15.9359 20.1406 16.4694 20.3706 17.145 20.6611C18.0603 21.0559 19.2002 21.5469 21.1551 21.5469H24L21.8438 18.7344H21.4077ZM7.12345 13.3064C6.3338 13.4698 5.76872 13.7212 5.2702 13.9437C4.58081 14.2506 3.98545 14.5156 2.84494 14.5156H1.40625V15.9219H2.84494C4.28414 15.9219 5.07652 15.569 5.84212 15.2277C6.31795 15.0162 6.76702 14.8164 7.40766 14.6838C8.33395 14.4909 9.25884 14.7271 10.0162 15.3444C10.3302 15.5998 10.5743 15.9128 10.7781 16.2484C11.2005 16.3855 11.6129 16.5538 11.9999 16.7753C12.3869 16.5538 12.7993 16.3855 13.2217 16.2484C13.4255 15.9128 13.6696 15.5998 13.9836 15.3444C14.7417 14.7271 15.668 14.4943 16.5922 14.6838C17.2328 14.8163 17.6819 15.0162 18.1577 15.2283C18.9234 15.569 19.7158 15.9219 21.1551 15.9219H22.5469V14.5156H21.1551C20.0145 14.5156 19.4192 14.2506 18.7298 13.9437C18.2313 13.7212 17.6663 13.4699 16.8766 13.3064C15.5507 13.0332 14.1726 13.3778 13.0952 14.2533C12.6415 14.6231 12.2896 15.0771 12 15.5653C11.7105 15.0771 11.3586 14.6231 10.9049 14.2533C9.82814 13.3772 8.45072 13.0332 7.12345 13.3064Z" fill="white"/>
</svg>
