<svg width="119" height="119" viewBox="0 0 119 119" fill="none" xmlns="http://www.w3.org/2000/svg">
<path d="M73.71 51.7408C83.7717 47.0818 87.8494 44.447 86.5041 43.4874C85.8003 42.9993 85.4411 42.9696 83.8959 43.2544C80.8989 43.8492 69.0778 49.4679 68.8199 50.4305C68.4621 51.7657 71.6931 52.6647 73.71 51.7408Z" fill="#323231"/>
<path d="M52.0583 46.2058C53.2692 45.798 53.2402 45.6572 50.4099 40.2728C48.9159 37.3762 47.5628 35.4495 46.4355 34.5484C44.8993 33.3047 43.7754 34.1352 44.2277 35.1882C48.0698 44.2717 49.9668 46.91 52.0583 46.2058Z" fill="#323231"/>
<path d="M77.0671 63.7562C75.3169 62.6882 66.4229 57.0102 65.7814 56.5388C65.4721 56.3228 65.3893 55.635 65.5476 54.5459C66.6331 46.3835 67.1847 37.8448 66.7096 36.7524C66.3631 35.9274 64.4983 35.6607 63.792 36.3034C63.0856 36.9462 58.6757 44.1847 55.7743 49.5309L53.8729 53.0151C34.6834 53.8638 33.7511 53.4809 41.0987 58.0789L47.5869 62.147C51.2721 64.4657 51.357 64.5214 51.3088 65.5734C51.2375 67.0853 51.3983 74.5835 51.2867 78.1147C51.0239 85.6988 55.5696 82.1909 62.0896 69.6939L63.5902 66.8345C63.9806 66.8725 66.4058 67.2894 77.2128 67.8222C79.6903 67.9202 79.6541 65.3146 77.0671 63.7562Z" fill="#323231"/>
<path d="M63.3276 63.7023C64.667 64.0611 71.9292 64.2432 72.2366 64.0926C72.5835 63.9193 66.7704 60.1981 64.1252 58.857C62.0074 57.7903 62.0801 58.1429 62.6171 50.5324C63.1246 43.7793 63.1243 43.7793 62.2473 45.3081L57.2884 54.0967C56.7897 54.9615 55.9069 55.3906 55.0659 55.1652C54.1938 54.9315 45.8971 55.3709 44.1837 55.411C42.807 55.4415 43.2616 55.8628 46.4402 57.5798C52.7665 61.0055 54.3444 62.0939 54.2983 63.0135C54.2584 64.0345 54.8737 68.592 54.7745 72.3262C54.7109 75.3044 54.8289 75.2365 57.3333 70.749C61.1262 63.9444 61.708 63.2683 63.3276 63.7023Z" fill="white"/>
<path d="M64.3546 70.8333C64.1716 71.5164 70.173 82.0105 71.2007 82.785C73.3639 84.4296 74.3364 83.2921 72.9627 80.6942C69.2837 73.6181 64.937 68.6597 64.3546 70.8333Z" fill="#323231"/>
<path d="M39.8388 66.3944C32.7769 68.8286 31.842 69.5766 34.8321 70.3778C36.2961 70.77 47.2607 66.8522 47.205 65.9387C47.1184 64.5177 44.8484 64.6416 39.8388 66.3944Z" fill="#323231"/>
</svg>
